HIERARCHY
ROOT Hips
{
	OFFSET 0.000000 87.230942 0.000000
	CHANNELS 6 Xposition Yposition Zposition Xrotation Yrotation Zrotation
	JOINT Pelvis
	{
		OFFSET 0.000000 0.000000 0.000000
		CHANNELS 3 Xrotation Yrotation Zrotation
		JOINT LeftUpLeg
		{
			OFFSET 12.017000 -9.376404 -2.439400
			CHANNELS 3 Xrotation Yrotation Zrotation
			JOINT LeftLeg
			{
				OFFSET -0.007312 -32.846973 2.110600
				CHANNELS 3 Xrotation Yrotation Zrotation
				JOINT LeftFoot
				{
					OFFSET 0.007312 -32.065170 -0.570400
					CHANNELS 3 Xrotation Yrotation Zrotation
					JOINT LeftToeBase
					{
						OFFSET 0.728300 -11.045900 13.180700
						CHANNELS 3 Xrotation Yrotation Zrotation
						End Site
						{
							OFFSET 0.000000 17.212589 0.000000
						}
					}
				}
				JOINT LeftPantLeg
				{
					OFFSET 0.002788 -16.709013 -3.143600
					CHANNELS 3 Xrotation Yrotation Zrotation
					End Site
					{
						OFFSET -0.605125 24.528742 0.000000
					}
				}
			}
			JOINT Left_Butt
			{
				OFFSET -6.630234 1.326584 -3.183700
				CHANNELS 3 Xrotation Yrotation Zrotation
				End Site
				{
					OFFSET -0.498041 20.188049 0.000000
				}
			}
		}
		JOINT RightUpLeg
		{
			OFFSET -11.717000 -9.376404 -2.439400
			CHANNELS 3 Xrotation Yrotation Zrotation
			JOINT RightLeg
			{
				OFFSET -0.003241 -32.846912 2.110600
				CHANNELS 3 Xrotation Yrotation Zrotation
				JOINT RightFoot
				{
					OFFSET 0.003241 -32.065136 -0.570500
					CHANNELS 3 Xrotation Yrotation Zrotation
					JOINT RightToeBase
					{
						OFFSET -0.728300 -11.045901 13.180700
						CHANNELS 3 Xrotation Yrotation Zrotation
						End Site
						{
							OFFSET 0.000000 17.212593 0.000000
						}
					}
				}
				JOINT RightPantLeg
				{
					OFFSET 0.008142 -16.708982 -3.143700
					CHANNELS 3 Xrotation Yrotation Zrotation
					End Site
					{
						OFFSET 0.605088 24.528715 0.000000
					}
				}
			}
			JOINT Right_Butt
			{
				OFFSET 6.630732 1.326584 -3.183700
				CHANNELS 3 Xrotation Yrotation Zrotation
				End Site
				{
					OFFSET 0.498015 20.188240 0.000000
				}
			}
		}
	}
	JOINT Spine
	{
		OFFSET -0.062400 7.848404 3.918300
		CHANNELS 3 Xrotation Yrotation Zrotation
		JOINT Spine1
		{
			OFFSET -0.072800 11.422302 0.713400
			CHANNELS 3 Xrotation Yrotation Zrotation
			JOINT Spine2
			{
				OFFSET -0.083200 13.054001 -1.931600
				CHANNELS 3 Xrotation Yrotation Zrotation
				JOINT Neck
				{
					OFFSET -0.092200 14.121796 -5.138800
					CHANNELS 3 Xrotation Yrotation Zrotation
					JOINT Head
					{
						OFFSET 0.000200 10.447403 -0.842000
						CHANNELS 3 Xrotation Yrotation Zrotation
						JOINT Visor
						{
							OFFSET 0.457100 25.671204 16.550400
							CHANNELS 3 Xrotation Yrotation Zrotation
							End Site
							{
								OFFSET 0.000000 26.061493 0.000000
							}
						}
						JOINT HairMidA
						{
							OFFSET 0.459400 31.585403 8.437400
							CHANNELS 3 Xrotation Yrotation Zrotation
							End Site
							{
								OFFSET 0.000000 26.061493 0.000000
							}
						}
						JOINT HairMidB
						{
							OFFSET 0.464000 33.309204 -8.389700
							CHANNELS 3 Xrotation Yrotation Zrotation
							End Site
							{
								OFFSET 0.000000 26.061493 0.000000
							}
						}
						JOINT HairMidC
						{
							OFFSET 0.466600 27.991196 -17.375099
							CHANNELS 3 Xrotation Yrotation Zrotation
							End Site
							{
								OFFSET 0.000000 26.061493 0.000000
							}
						}
						JOINT HairMidD
						{
							OFFSET 0.467700 17.888092 -21.169500
							CHANNELS 3 Xrotation Yrotation Zrotation
							End Site
							{
								OFFSET 0.000000 26.061493 0.000000
							}
						}
						JOINT HairMidE
						{
							OFFSET 5.325700 3.514603 -14.369699
							CHANNELS 3 Xrotation Yrotation Zrotation
							End Site
							{
								OFFSET 0.000000 26.061493 0.000000
							}
						}
						JOINT HairMidF
						{
							OFFSET -4.394100 3.514603 -14.372400
							CHANNELS 3 Xrotation Yrotation Zrotation
							End Site
							{
								OFFSET 0.000000 26.061493 0.000000
							}
						}
						JOINT HairLeftA
						{
							OFFSET 15.319900 25.746506 2.623300
							CHANNELS 3 Xrotation Yrotation Zrotation
							End Site
							{
								OFFSET 0.000000 26.061493 0.000000
							}
						}
						JOINT HairLeftB
						{
							OFFSET 12.619500 29.289398 -8.731499
							CHANNELS 3 Xrotation Yrotation Zrotation
							End Site
							{
								OFFSET 0.000000 26.061493 0.000000
							}
						}
						JOINT HairLeftC
						{
							OFFSET 15.714800 15.959900 2.909800
							CHANNELS 3 Xrotation Yrotation Zrotation
							End Site
							{
								OFFSET 0.000000 26.061493 0.000000
							}
						}
						JOINT HairLeftD
						{
							OFFSET 16.101700 18.437408 -7.553200
							CHANNELS 3 Xrotation Yrotation Zrotation
							End Site
							{
								OFFSET 0.000000 26.061493 0.000000
							}
						}
						JOINT HairLeftE
						{
							OFFSET 9.731900 17.915009 -18.316799
							CHANNELS 3 Xrotation Yrotation Zrotation
							End Site
							{
								OFFSET 0.000000 26.061493 0.000000
							}
						}
						JOINT HairLeftF
						{
							OFFSET 11.204300 4.953598 -9.668100
							CHANNELS 3 Xrotation Yrotation Zrotation
							End Site
							{
								OFFSET 0.000000 26.061493 0.000000
							}
						}
						JOINT HairRightA
						{
							OFFSET -14.397900 25.746307 2.615100
							CHANNELS 3 Xrotation Yrotation Zrotation
							End Site
							{
								OFFSET 0.000000 26.061493 0.000000
							}
						}
						JOINT HairRightB
						{
							OFFSET -11.691200 29.289200 -8.738199
							CHANNELS 3 Xrotation Yrotation Zrotation
							End Site
							{
								OFFSET 0.000000 26.061493 0.000000
							}
						}
						JOINT HairRightC
						{
							OFFSET -14.792900 15.959702 2.901400
							CHANNELS 3 Xrotation Yrotation Zrotation
							End Site
							{
								OFFSET 0.000000 26.061493 0.000000
							}
						}
						JOINT HairRightD
						{
							OFFSET -15.174000 18.437195 -7.561900
							CHANNELS 3 Xrotation Yrotation Zrotation
							End Site
							{
								OFFSET 0.000000 26.061493 0.000000
							}
						}
						JOINT HairRightE
						{
							OFFSET -8.798200 17.914902 -18.322001
							CHANNELS 3 Xrotation Yrotation Zrotation
							End Site
							{
								OFFSET 0.000000 26.061493 0.000000
							}
						}
						JOINT HairRightF
						{
							OFFSET -10.275200 4.953506 -9.674099
							CHANNELS 3 Xrotation Yrotation Zrotation
							End Site
							{
								OFFSET 0.000000 26.061493 0.000000
							}
						}
					}
				}
				JOINT LeftShoulder
				{
					OFFSET 5.133500 7.341202 -1.867600
					CHANNELS 3 Xrotation Yrotation Zrotation
					JOINT LeftArm
					{
						OFFSET 8.072663 0.936867 -2.176600
						CHANNELS 3 Xrotation Yrotation Zrotation
						JOINT LeftForeArm
						{
							OFFSET 31.271999 0.000000 0.000000
							CHANNELS 3 Xrotation Yrotation Zrotation
							JOINT LeftHand
							{
								OFFSET 31.771030 0.000000 0.000000
								CHANNELS 3 Xrotation Yrotation Zrotation
								JOINT LeftHandThumb1
								{
									OFFSET 2.886520 -2.557846 4.416640
									CHANNELS 3 Xrotation Yrotation Zrotation
									JOINT LeftHandThumb2
									{
										OFFSET 2.371025 -1.368912 1.368911
										CHANNELS 3 Xrotation Yrotation Zrotation
										JOINT LeftHandThumb3
										{
											OFFSET 2.243378 -1.295212 1.295213
											CHANNELS 3 Xrotation Yrotation Zrotation
											End Site
											{
												OFFSET -0.332611 2.876945 0.020015
											}
										}
									}
								}
								JOINT LeftHandIndex1
								{
									OFFSET 8.568985 -0.641945 3.119977
									CHANNELS 3 Xrotation Yrotation Zrotation
									JOINT LeftHandIndex2
									{
										OFFSET 3.348503 0.000000 0.000000
										CHANNELS 3 Xrotation Yrotation Zrotation
										JOINT LeftHandIndex3
										{
											OFFSET 3.314552 0.000000 0.000000
											CHANNELS 3 Xrotation Yrotation Zrotation
											End Site
											{
												OFFSET -1.032898 3.075485 0.678796
											}
										}
									}
								}
								JOINT LeftHandMiddle1
								{
									OFFSET 8.124603 0.000000 0.000000
									CHANNELS 3 Xrotation Yrotation Zrotation
									JOINT LeftHandMiddle2
									{
										OFFSET 4.166275 0.000000 0.000000
										CHANNELS 3 Xrotation Yrotation Zrotation
										JOINT LeftHandMiddle3
										{
											OFFSET 3.018135 0.000000 0.000000
											CHANNELS 3 Xrotation Yrotation Zrotation
											End Site
											{
												OFFSET -1.032700 2.767982 0.617226
											}
										}
									}
								}
								JOINT LeftHandRing1
								{
									OFFSET 8.571686 -0.031357 -2.884048
									CHANNELS 3 Xrotation Yrotation Zrotation
									JOINT LeftHandRing2
									{
										OFFSET 3.671181 0.000000 0.000000
										CHANNELS 3 Xrotation Yrotation Zrotation
										JOINT LeftHandRing3
										{
											OFFSET 2.728851 0.000000 0.000000
											CHANNELS 3 Xrotation Yrotation Zrotation
											End Site
											{
												OFFSET -0.815796 2.539223 0.577389
											}
										}
									}
								}
								JOINT LeftHandPinky1
								{
									OFFSET 7.854515 -0.675232 -5.213020
									CHANNELS 3 Xrotation Yrotation Zrotation
									JOINT LeftHandPinky2
									{
										OFFSET 3.068596 0.000000 0.000000
										CHANNELS 3 Xrotation Yrotation Zrotation
										JOINT LeftHandPinky3
										{
											OFFSET 2.396042 0.000000 0.000000
											CHANNELS 3 Xrotation Yrotation Zrotation
											End Site
											{
												OFFSET -0.524597 2.267998 0.567429
											}
										}
									}
								}
							}
							JOINT LeftSleeve
							{
								OFFSET 19.684509 -0.200119 0.476146
								CHANNELS 3 Xrotation Yrotation Zrotation
								End Site
								{
									OFFSET -0.031017 25.731133 -0.002868
								}
							}
						}
					}
				}
				JOINT RightShoulder
				{
					OFFSET -4.395900 7.341202 -1.870200
					CHANNELS 3 Xrotation Yrotation Zrotation
					JOINT RightArm
					{
						OFFSET -8.071453 0.936867 -2.181100
						CHANNELS 3 Xrotation Yrotation Zrotation
						JOINT RightForeArm
						{
							OFFSET -31.272011 0.000000 0.000000
							CHANNELS 3 Xrotation Yrotation Zrotation
							JOINT RightHand
							{
								OFFSET -31.771019 0.000000 0.000000
								CHANNELS 3 Xrotation Yrotation Zrotation
								JOINT RightHandThumb1
								{
									OFFSET -2.886520 -2.557808 4.416626
									CHANNELS 3 Xrotation Yrotation Zrotation
									JOINT RightHandThumb2
									{
										OFFSET -2.371056 -1.368927 1.368928
										CHANNELS 3 Xrotation Yrotation Zrotation
										JOINT RightHandThumb3
										{
											OFFSET -2.243362 -1.295204 1.295206
											CHANNELS 3 Xrotation Yrotation Zrotation
											End Site
											{
												OFFSET 0.332642 2.876938 0.020047
											}
										}
									}
								}
								JOINT RightHandIndex1
								{
									OFFSET -8.568993 -0.641953 3.120017
									CHANNELS 3 Xrotation Yrotation Zrotation
									JOINT RightHandIndex2
									{
										OFFSET -3.348518 0.000000 0.000000
										CHANNELS 3 Xrotation Yrotation Zrotation
										JOINT RightHandIndex3
										{
											OFFSET -3.314552 0.000000 0.000000
											CHANNELS 3 Xrotation Yrotation Zrotation
											End Site
											{
												OFFSET 1.032898 3.075478 0.678804
											}
										}
									}
								}
								JOINT RightHandMiddle1
								{
									OFFSET -8.124588 0.000000 0.000000
									CHANNELS 3 Xrotation Yrotation Zrotation
									JOINT RightHandMiddle2
									{
										OFFSET -4.166275 0.000000 0.000000
										CHANNELS 3 Xrotation Yrotation Zrotation
										JOINT RightHandMiddle3
										{
											OFFSET -3.018097 0.000000 0.000000
											CHANNELS 3 Xrotation Yrotation Zrotation
											End Site
											{
												OFFSET 1.032700 2.767937 0.617197
											}
										}
									}
								}
								JOINT RightHandRing1
								{
									OFFSET -8.571747 -0.031349 -2.884061
									CHANNELS 3 Xrotation Yrotation Zrotation
									JOINT RightHandRing2
									{
										OFFSET -3.671204 0.000000 0.000000
										CHANNELS 3 Xrotation Yrotation Zrotation
										JOINT RightHandRing3
										{
											OFFSET -2.728874 0.000000 0.000000
											CHANNELS 3 Xrotation Yrotation Zrotation
											End Site
											{
												OFFSET 0.815804 2.539261 0.577413
											}
										}
									}
								}
								JOINT RightHandPinky1
								{
									OFFSET -7.854561 -0.675247 -5.212970
									CHANNELS 3 Xrotation Yrotation Zrotation
									JOINT RightHandPinky2
									{
										OFFSET -3.068550 0.000000 0.000000
										CHANNELS 3 Xrotation Yrotation Zrotation
										JOINT RightHandPinky3
										{
											OFFSET -2.395981 0.000000 0.000000
											CHANNELS 3 Xrotation Yrotation Zrotation
											End Site
											{
												OFFSET 0.524605 2.267952 0.567413
											}
										}
									}
								}
							}
							JOINT RightSleeve
							{
								OFFSET -19.684753 -0.200165 0.476065
								CHANNELS 3 Xrotation Yrotation Zrotation
								End Site
								{
									OFFSET 0.031342 25.731255 -0.002917
								}
							}
						}
					}
				}
				JOINT Hood
				{
					OFFSET 0.369700 14.447800 -5.317800
					CHANNELS 3 Xrotation Yrotation Zrotation
					JOINT Hood1
					{
						OFFSET 0.001700 -5.553802 -5.895100
						CHANNELS 3 Xrotation Yrotation Zrotation
						JOINT Hood2
						{
							OFFSET -0.000200 -8.380501 0.763600
							CHANNELS 3 Xrotation Yrotation Zrotation
							End Site
							{
								OFFSET 0.000000 8.415215 0.000000
							}
						}
					}
				}
				JOINT Left_Breast
				{
					OFFSET 5.682500 3.120102 3.188800
					CHANNELS 3 Xrotation Yrotation Zrotation
					End Site
					{
						OFFSET 0.000000 10.528564 0.000000
					}
				}
				JOINT Right_Breast
				{
					OFFSET -4.947600 3.120102 3.185900
					CHANNELS 3 Xrotation Yrotation Zrotation
					End Site
					{
						OFFSET 0.000000 10.528564 0.000000
					}
				}
				JOINT Whistle
				{
					OFFSET 0.368200 11.471298 0.095400
					CHANNELS 3 Xrotation Yrotation Zrotation
					JOINT Whistle1
					{
						OFFSET -0.002000 -6.349899 7.479800
						CHANNELS 3 Xrotation Yrotation Zrotation
						JOINT Whistle2
						{
							OFFSET -0.001300 -8.217598 4.717600
							CHANNELS 3 Xrotation Yrotation Zrotation
							End Site
							{
								OFFSET 0.000000 9.475479 0.000000
							}
						}
					}
				}
			}
		}
		JOINT Belly
		{
			OFFSET 0.212400 1.593002 3.163700
			CHANNELS 3 Xrotation Yrotation Zrotation
			End Site
			{
				OFFSET 0.000000 7.496635 0.000000
			}
		}
	}
	JOINT FitGrandmaFacialAnim_Joint
	{
		OFFSET 1.150000 -86.211197 -1.220100
		CHANNELS 3 Xrotation Yrotation Zrotation
		End Site
		{
			OFFSET 0.000000 31.666618 0.000000
		}
	}
}
MOTION
Frames: 4
Frame Time: 0.016667
94.188133 70.220329 186.469574 -100.721938 -66.166105 -182.413247 0.000000 0.000000 -0.000001 -58.352471 16.926281 31.800323 95.700977 -4.660731 -9.856008 4.848880 -9.871432 -8.036544 0.000002 -0.000000 0.000000 -0.000004 -0.000000 -0.000001 0.000000 0.000001 -0.000000 -57.901494 14.958746 -51.366540 66.183898 4.402243 -2.899198 -4.885429 0.798383 19.007892 0.000001 0.000002 -0.000000 0.000002 0.000001 0.000001 0.000002 0.000001 -0.000001 11.563390 1.534483 1.638757 4.854289 11.245311 9.491957 -0.264525 4.650231 6.859580 17.054948 5.940618 9.977813 17.218043 33.848129 -18.256840 0.000004 -0.000003 -0.000002 0.000004 -0.000003 -0.000002 0.000004 -0.000003 -0.000002 0.000004 -0.000003 -0.000002 0.000004 -0.000003 -0.000002 0.000004 -0.000003 -0.000002 0.000004 -0.000003 -0.000002 0.000004 -0.000003 -0.000002 0.000004 -0.000003 -0.000002 0.000004 -0.000003 -0.000002 0.000004 -0.000003 -0.000002 0.000004 -0.000003 -0.000002 0.000004 -0.000003 -0.000002 0.000004 -0.000003 -0.000002 0.000004 -0.000003 -0.000002 0.000004 -0.000003 -0.000002 0.000004 -0.000003 -0.000002 0.000004 -0.000003 -0.000002 0.000004 -0.000003 -0.000002 0.094771 -6.199208 -0.123047 9.665283 -8.508370 -0.913046 0.000010 -16.045858 0.000001 35.770455 4.134760 2.795919 -21.849381 -26.533893 3.214710 14.707544 16.467040 -15.962731 0.000000 0.000002 0.000002 -1.323875 -11.050863 -6.554812 0.019606 0.479406 -4.683546 0.000000 -0.000000 -0.000001 -0.648681 1.485331 -20.430354 0.000903 0.102840 -1.003633 0.000000 -0.000003 0.000002 5.314359 12.518979 -31.340805 0.021990 0.507678 -4.960398 -0.000001 0.000000 -0.000003 2.321971 20.828228 -37.538071 0.232400 1.635308 -16.176159 -0.000001 -0.000002 0.000001 0.000001 -0.000000 -0.000000 0.702719 0.170127 17.086867 -42.474330 9.627232 15.642597 0.000009 21.324534 0.000003 54.171026 3.808820 -28.436338 -17.608771 2.987706 1.533008 -5.026869 -26.669278 -12.857322 -0.000001 0.000001 -0.000001 0.237645 -2.716270 11.266510 0.242382 -1.484346 18.547368 -0.000001 -0.000002 0.000001 2.290400 -8.097825 24.945364 0.422941 -1.940995 24.583200 -0.000001 -0.000003 -0.000006 5.299372 -10.956011 36.062852 0.774636 -2.573968 33.493738 -0.000002 -0.000002 -0.000001 6.881485 -15.240346 43.779091 0.835655 -2.663789 34.829057 -0.000003 0.000001 0.000001 -0.000002 -0.000001 0.000002 -0.000000 -0.000001 -0.000003 -0.000000 -0.000001 -0.000003 -0.000000 -0.000001 -0.000003 -0.000000 -0.000001 -0.000003 -0.000000 -0.000001 -0.000003 -0.000000 -0.000001 -0.000003 -0.000000 -0.000001 -0.000003 -0.000000 -0.000001 -0.000003 0.000001 -0.000001 -0.000000 0.000000 0.000000 -0.000001 
96.824226 67.078751 190.002747 -100.026399 -65.455977 -183.141510 0.000000 -0.000001 0.000000 -58.581699 16.527823 30.679236 96.391509 -4.557255 -9.592931 4.552147 -9.774455 -7.490144 0.000001 -0.000000 0.000000 -0.000001 0.000000 -0.000000 -0.000003 -0.000000 0.000001 -58.557356 14.281211 -51.004236 62.962514 4.041632 -3.449790 -1.264980 1.353087 21.154030 0.000000 0.000000 -0.000001 -0.000002 0.000001 -0.000001 0.000001 -0.000000 -0.000000 11.660082 1.368256 1.163337 5.544250 11.383308 9.197805 -0.042804 4.627747 6.563420 15.374954 5.803012 9.269351 18.722390 32.861420 -18.303621 0.000001 -0.000002 -0.000003 0.000001 -0.000002 -0.000003 0.000001 -0.000002 -0.000003 0.000001 -0.000002 -0.000003 0.000001 -0.000002 -0.000003 0.000001 -0.000002 -0.000003 0.000001 -0.000002 -0.000003 0.000001 -0.000002 -0.000003 0.000001 -0.000002 -0.000003 0.000001 -0.000002 -0.000003 0.000001 -0.000002 -0.000003 0.000001 -0.000002 -0.000003 0.000001 -0.000002 -0.000003 0.000001 -0.000002 -0.000003 0.000001 -0.000002 -0.000003 0.000001 -0.000002 -0.000003 0.000001 -0.000002 -0.000003 0.000001 -0.000002 -0.000003 0.000001 -0.000002 -0.000003 0.193425 -6.244335 -0.490212 8.939519 -6.671606 0.394174 -0.000007 -17.704907 -0.000005 40.311787 8.263365 4.360184 -22.662725 -26.776585 3.864302 11.870372 19.263013 -11.470793 -0.000002 -0.000001 0.000001 0.130008 -11.645899 -0.445211 0.021085 0.497163 -4.857439 0.000001 -0.000001 0.000006 -0.475361 0.547750 -12.557673 0.000930 0.104597 -1.020734 0.000000 -0.000003 -0.000000 3.960300 12.243276 -23.933507 0.023679 0.526792 -5.147692 0.000001 -0.000002 0.000002 1.720335 20.344007 -29.864896 0.251795 1.700707 -16.842470 -0.000002 -0.000004 -0.000001 -0.000001 0.000000 -0.000002 0.757833 0.219487 18.065758 -42.841077 9.112747 16.864205 0.000000 24.910767 0.000001 54.071363 4.622363 -27.029939 -17.424499 3.155069 1.313335 -4.888523 -26.946245 -12.345339 -0.000003 0.000002 0.000001 0.256212 -2.735451 12.032141 0.266325 -1.553853 19.450485 -0.000003 0.000001 0.000003 2.288266 -8.009703 25.439340 0.480177 -2.061434 26.221900 -0.000002 -0.000002 -0.000004 5.282048 -10.807355 36.655641 0.848283 -2.681822 35.099584 -0.000001 -0.000001 -0.000003 6.682613 -15.123068 43.637857 0.926465 -2.789628 36.737702 -0.000005 0.000000 0.000001 -0.000001 -0.000000 0.000002 -0.000001 -0.000001 -0.000002 -0.000001 -0.000001 -0.000002 -0.000001 -0.000001 -0.000002 -0.000001 -0.000001 -0.000002 -0.000001 -0.000001 -0.000002 -0.000001 -0.000001 -0.000002 -0.000001 -0.000000 -0.000001 -0.000001 -0.000000 -0.000001 -0.000000 0.000000 -0.000000 0.000000 -0.000001 0.000000 
99.408310 63.520256 193.752838 -98.980028 -65.931734 -183.697555 0.000000 0.000001 0.000000 -58.460784 15.535511 28.310152 97.191201 -4.341559 -8.864611 3.968051 -8.478824 -6.994059 0.000001 -0.000000 -0.000001 -0.000002 0.000000 0.000000 0.000002 0.000001 0.000001 -58.609566 12.734937 -51.636777 59.403029 3.692693 -4.099443 1.876866 2.245837 23.138907 0.000001 -0.000001 0.000001 -0.000002 0.000003 -0.000005 -0.000001 -0.000004 0.000000 11.762030 1.105458 1.097306 5.957488 11.339460 9.012862 0.073765 4.191053 6.295746 13.799713 5.635502 8.568022 19.962054 31.780696 -18.252612 0.000003 0.000003 0.000001 0.000003 0.000003 0.000001 0.000003 0.000003 0.000001 0.000003 0.000003 0.000001 0.000003 0.000003 0.000001 0.000003 0.000003 0.000001 0.000003 0.000003 0.000001 0.000003 0.000003 0.000001 0.000003 0.000003 0.000001 0.000003 0.000003 0.000001 0.000003 0.000003 0.000001 0.000003 0.000003 0.000001 0.000003 0.000003 0.000001 0.000003 0.000003 0.000001 0.000003 0.000003 0.000001 0.000003 0.000003 0.000001 0.000003 0.000003 0.000001 0.000003 0.000003 0.000001 0.000003 0.000003 0.000001 0.268089 -6.237654 -0.973499 7.893511 -4.110898 1.992691 -0.000007 -21.678773 -0.000006 45.854209 11.612308 6.910717 -24.357804 -27.217452 5.367385 4.744754 23.727328 -0.421149 0.000001 -0.000001 0.000002 2.172466 -12.057184 7.954032 0.022637 0.515076 -5.032884 0.000001 -0.000001 0.000000 0.020039 -0.647341 -0.983343 0.000961 0.106396 -1.038268 -0.000001 0.000000 -0.000001 1.956658 11.211968 -12.644196 0.025453 0.546076 -5.336634 0.000003 0.000004 -0.000002 0.969364 19.372257 -18.258772 0.272110 1.766391 -17.513916 -0.000001 -0.000001 -0.000002 -0.000001 0.000004 -0.000002 0.787623 0.240693 18.556502 -42.487923 7.719435 18.634660 -0.000010 29.131279 0.000002 53.659588 5.152979 -25.209952 -17.240915 3.321302 1.092001 -4.748497 -27.220682 -11.832495 0.000001 0.000001 0.000001 0.274443 -2.754143 12.796019 0.291302 -1.622812 20.351553 -0.000002 -0.000001 0.000001 2.284455 -7.922237 25.932008 0.540684 -2.179891 27.857058 -0.000004 0.000000 -0.000001 5.261787 -10.660312 37.246811 0.924737 -2.787321 36.701984 -0.000001 -0.000002 0.000001 6.484897 -15.005234 43.497592 1.021200 -2.912091 38.642318 -0.000001 0.000001 0.000001 -0.000001 0.000000 0.000002 -0.000003 -0.000001 0.000002 -0.000003 -0.000001 0.000002 -0.000003 -0.000001 0.000002 -0.000003 -0.000001 0.000002 -0.000003 -0.000001 0.000002 -0.000003 -0.000001 0.000002 -0.000002 0.000000 0.000002 -0.000002 0.000000 0.000002 -0.000000 -0.000001 -0.000000 0.000000 0.000001 0.000000 
102.134254 59.426323 197.667694 -98.885894 -65.698647 -185.882861 -0.000000 0.000001 0.000000 -59.070782 13.710817 26.626500 98.241302 -4.132044 -8.023848 4.545327 -8.100915 -6.555706 -0.000002 0.000000 -0.000001 0.000003 0.000000 0.000000 0.000004 0.000000 0.000001 -60.650816 12.463321 -50.788962 58.747611 4.268970 -5.913250 3.755949 2.828941 25.507941 -0.000001 0.000002 0.000002 -0.000000 -0.000000 -0.000001 0.000000 -0.000003 -0.000002 11.878877 0.847737 1.370490 6.189667 11.236926 8.879467 0.150939 3.491582 6.062963 12.506464 5.434268 7.875159 20.393683 30.654896 -18.008830 0.000003 0.000002 -0.000000 0.000003 0.000002 -0.000000 0.000003 0.000002 -0.000000 0.000003 0.000002 -0.000000 0.000003 0.000002 -0.000000 0.000003 0.000002 -0.000000 0.000003 0.000002 -0.000000 0.000003 0.000002 -0.000000 0.000003 0.000002 -0.000000 0.000003 0.000002 -0.000000 0.000003 0.000002 -0.000000 0.000003 0.000002 -0.000000 0.000003 0.000002 -0.000000 0.000003 0.000002 -0.000000 0.000003 0.000002 -0.000000 0.000003 0.000002 -0.000000 0.000003 0.000002 -0.000000 0.000003 0.000002 -0.000000 0.000003 0.000002 -0.000000 0.299033 -6.173943 -1.669670 6.360267 2.416608 3.605619 -0.000007 -28.398069 -0.000019 50.134511 13.536587 11.094395 -26.147725 -27.717025 6.953353 -3.260736 25.444456 12.144133 0.000001 -0.000003 -0.000001 4.001855 -11.998669 15.702204 0.024256 0.533128 -5.209778 0.000003 0.000000 -0.000001 0.680427 -1.545810 10.206244 0.000994 0.108235 -1.056272 0.000000 0.000001 0.000001 0.308133 9.634999 -1.589505 0.027295 0.565508 -5.527083 0.000001 -0.000001 0.000000 0.405192 18.245676 -6.886031 0.293332 1.832264 -18.189916 -0.000005 -0.000001 0.000001 0.000001 -0.000001 0.000000 1.035443 0.349702 19.024063 -41.972950 5.617773 20.313729 0.000007 34.549559 -0.000002 53.342193 5.393204 -23.168620 -17.059688 3.485430 0.870131 -4.607804 -27.490758 -11.322442 0.000000 -0.000000 -0.000001 0.292229 -2.772311 13.552787 0.317111 -1.690731 21.244351 0.000002 0.000001 -0.000000 2.279001 -7.836079 26.419959 0.603964 -2.295547 29.477314 -0.000002 -0.000001 -0.000005 5.238750 -10.515980 37.832227 1.003365 -2.889704 38.289801 -0.000003 -0.000001 -0.000001 6.289607 -14.887722 43.359202 1.119040 -3.030264 40.529704 -0.000003 0.000000 0.000001 -0.000002 0.000001 0.000001 0.000001 -0.000001 0.000001 0.000001 -0.000001 0.000001 0.000001 -0.000001 0.000001 0.000001 -0.000001 0.000001 0.000001 -0.000001 0.000001 0.000001 -0.000001 -0.000000 -0.000001 -0.000000 0.000001 -0.000001 -0.000000 0.000001 0.000001 0.000000 0.000000 -0.000000 0.000001 0.000000 
